<svg focusable="false" viewBox="0 0 24 24" class="jss1499 jss1500 jss1697 jss1653 jss1662 jss1669" aria-label="TruYou">
  <g fill="none">
    <circle cx="12" cy="12" r="10" fill="#3d98d2" stroke="#ffffff"></circle>
    <rect width="14" height="14" transform="translate(5 5)" fill="#ffffff" fill-opacity="0.01"></rect>
    <path fill-rule="evenodd" clip-rule="evenodd" d="M12.848 5.794C12.659 5.68842 12.259 5.58325 12.1538 5.58325C12.0487 5.58325 11.8317 5.59542 11.7498 5.61063C11.6679 5.62583 11.2584 5.72928 11.1141 5.80726C9.76449 6.53625 8.41682 7.26856 7.07232 8.00627C6.55565 8.28976 6.27326 8.73306 6.18791 9.29788C6.18508 9.31658 6.1797 9.33494 6.17432 9.35329C6.17179 9.36193 6.16926 9.37056 6.16699 9.37922V12.0937C6.17184 12.1689 6.17628 12.2441 6.18071 12.3194C6.1904 12.4835 6.20008 12.6477 6.21399 12.8115C6.32208 14.0851 6.70219 15.2601 7.55995 16.2601C8.21761 17.0269 9.04736 17.5658 9.98149 17.9657C10.4278 18.1567 11.2841 18.3831 11.7442 18.4985C11.948 18.5496 12.16 18.5455 12.3612 18.4852C12.9761 18.3007 14.3618 17.8578 15.0679 17.4144C16.4775 16.5292 17.33 15.281 17.6576 13.6915C17.7528 13.2299 17.8024 12.7636 17.8153 12.2932C17.8167 12.2428 17.8218 12.1924 17.8269 12.142C17.8293 12.1188 17.8317 12.0957 17.8337 12.0725V11.097C17.8322 11.0093 17.8307 10.9216 17.8293 10.8339C17.8257 10.6252 17.8222 10.4166 17.8196 10.2079C17.8185 10.1239 17.8193 10.0398 17.82 9.95574C17.8215 9.79217 17.823 9.62862 17.8112 9.46594C17.7685 8.87773 17.4946 8.40273 16.9699 8.10344C15.9744 7.53559 14.9728 6.97787 13.9712 6.42015C13.5967 6.21161 13.2222 6.00307 12.848 5.794ZM11.6204 13.3188C11.5836 13.3569 11.5461 13.3955 11.5079 13.4351C11.3743 13.314 11.2417 13.1936 11.1097 13.0739C10.7748 12.7702 10.4444 12.4704 10.1136 12.1709C9.84227 11.9252 9.47395 11.9272 9.23994 12.1748C9.01073 12.4172 9.03576 12.7742 9.30111 13.0153C9.92091 13.5785 10.5413 14.1411 11.162 14.7034C11.489 14.9997 11.8142 14.9868 12.1209 14.6669L14.3441 12.3483C14.438 12.2503 14.5321 12.1526 14.6263 12.0548C14.858 11.8142 15.0897 11.5737 15.3178 11.3299C15.6527 10.9721 15.5069 10.4207 15.0424 10.2819C14.7619 10.1981 14.5286 10.2832 14.3325 10.4883C13.6529 11.1989 12.9726 11.9089 12.2924 12.619C12.1438 12.774 11.9951 12.9291 11.8465 13.0842C11.7723 13.1618 11.6976 13.239 11.6204 13.3188Z" fill="#ffffff"></path>
  </g>
</svg>
